<svg xmlns="http://www.w3.org/2000/svg" viewBox="0 0 200 200" role="img" aria-label="Add your photo">
  <defs>
    <linearGradient id="cg" x1="0" y1="0" x2="1" y2="1">
      <stop offset="0" stop-color="#e94b79"/>
      <stop offset="1" stop-color="#6a4be0"/>
    </linearGradient>
  </defs>
  <circle cx="100" cy="100" r="100" fill="url(#cg)"/>
  <!-- person silhouette -->
  <g fill="#ffffff" fill-opacity="0.92">
    <circle cx="100" cy="82" r="30"/>
    <path d="M100 120c-32 0-55 21-59 49a4 4 0 0 0 4 4h110a4 4 0 0 0 4-4c-4-28-27-49-59-49Z"/>
  </g>
  <!-- camera badge: signals this is a replaceable placeholder -->
  <g transform="translate(150 150)">
    <circle r="24" fill="#ffffff"/>
    <g fill="#e94b79" transform="translate(-13 -10)">
      <path d="M8 2h10l2 3h4a3 3 0 0 1 3 3v9a3 3 0 0 1-3 3H2a3 3 0 0 1-3-3V8a3 3 0 0 1 3-3h4l2-3Z"/>
      <circle cx="13" cy="13" r="5.5" fill="#ffffff"/>
    </g>
  </g>
</svg>
